# xmcd
#
# Track frame offsets: 
#        150
#        18102
#        39221
#        59193
#        75535
#        97496
#        113122
#        136900
#        158200
#        177012
#
# Disc length: 2668 seconds
#
# Revision: 4
# Processed by: cddbd v1.5.2PL0 Copyright (c) Steve Scherf et al.
# Submitted via: ExactAudioCopyFreeDBPlugin 1.0
#
DISCID=7c0a6a0a
DTITLE=Thibaud, Todd - Live at the Rockpalast Crossroads Festival, CD 
DTITLE=1
DYEAR=2011
DGENRE=Roots Rock
TTITLE0=Drifting
TTITLE1=Changing Now
TTITLE2=Is It Love?
TTITLE3=Louisiana
TTITLE4=Three Words
TTITLE5=Broken
TTITLE6=Anywhere
TTITLE7=Sweet Destiny
TTITLE8=On My Own Again
TTITLE9=Little Mystery
EXTD=1997 Universal Music (UK) Ltd.\n\nAll songs written by Ezio Luned
EXTD=ei.\nProduced by Peter Van Hooke and Rod Argent\nRecorded at Red 
EXTD=House Studios.\nRecorded and mixed by Simon Smart.\nMixed at Abbe
EXTD=y Road Studios assisted by Paul Hicks.\nMastered by Tim Young.\nP
EXTD=ublished by Dizzy Heights Music Publishing Ltd.\n\nEzio Lunedei: 
EXTD=Vocals, guitar, mandolin and harmonica.\nMark Fowell (Booga): Gui
EXTD=tars.\nJohn Giblin: Bass (all except *).\nMo Foster: Bass (*on Ci
EXTD=nderella, Moon, Maybe Sometimes).\nPeter Van Hooke: Drums.\nRod A
EXTD=rgent: Keyboards.\nPatrick Kiernan, Gavin Wright, Boguslav Kostec
EXTD=ki and Wilfred Gibson: Violins.\nPeter Lale, Philip Dukes: Viola's.
EXTD=\nAndy Pleath, Paul Kegg: Celli\nString arrangemnts by Rod Argent
EXTD=\n
EXTT0=
EXTT1=
EXTT2=
EXTT3=
EXTT4=
EXTT5=
EXTT6=
EXTT7=
EXTT8=
EXTT9=
PLAYORDER=
